<?xml version="1.0" encoding="utf-8"?>
<!-- Generator: Adobe Illustrator 23.0.1, SVG Export Plug-In . SVG Version: 6.00 Build 0)  -->
<svg version="1.1" id="レイヤー_1" xmlns="http://www.w3.org/2000/svg" xmlns:xlink="http://www.w3.org/1999/xlink" x="0px"
	 y="0px" viewBox="0 0 356 95" style="enable-background:new 0 0 356 95;" xml:space="preserve">
<style type="text/css">
	.st0{display:none;}
	.st1{display:inline;}
	.st2{display:inline;fill:#E0277B;}
	.st3{fill:#FFFFFF;}
	.st4{fill:#E0277B;}
</style>
<g class="st0">
	<path class="st1" d="M5.1-119.3h58L22.8-61.7h-7.6l36-51.5H5.1V-119.3z"/>
	<path class="st1" d="M61.6-106.8h45.8l-7.9,19.6h-6.2l5.7-13.9H61.6V-106.8z M81-96.7h6l-12.7,35h-6L81-96.7z"/>
	<path class="st1" d="M114.7-63.9l11-30.4h6.6l-11.1,30.4H114.7z M171.9-104.1h-25.4v42.4h-6.3v-42.4h-25.3v-5.9h25.3v-12.2h6.3
		v12.2h25.4V-104.1z M154.3-94.3h6.8l11,30.4h-6.7L154.3-94.3z M168.9-112.3h-4.2l-7.7-13.3h4.2L168.9-112.3z M174.6-115.7h-4.2
		l-7.6-13.3h4.2L174.6-115.7z"/>
	<path class="st1" d="M187.1-116.5h49.4v50.6h-49.4V-116.5z M193.4-72h37v-38.4h-37V-72z"/>
	<path class="st1" d="M253.4-88.9H248v-18.2h5.4V-88.9z M284.6-105.3h6.7l-25.6,43.6H259L284.6-105.3z M265.2-88.9h-5.4v-18.2h5.4
		V-88.9z"/>
	<path class="st1" d="M351.9-115.9l-38,54.2h-7.4l33.8-48.3h-25.8l-13.1,18.8h-7.5l21.7-31h7.5l-4.4,6.2H351.9z"/>
	<polygon class="st2" points="228.5,-135.1 195.8,-88.6 209.4,-87.9 195.5,-47.9 228.2,-94.4 214.6,-95.1 	"/>
</g>
<rect class="st0" width="356" height="95"/>
<g>
	<path class="st3" d="M5.1,20.7h58L22.8,78.3h-7.6l36-51.5H5.1V20.7z"/>
	<path class="st3" d="M61.6,33.2h45.8l-7.9,19.6h-6.2l5.7-13.9H61.6V33.2z M81,43.3h6l-12.7,35h-6L81,43.3z"/>
	<path class="st3" d="M114.7,76.1l11-30.4h6.6l-11.1,30.4H114.7z M171.9,35.9h-25.4v42.4h-6.3V35.9h-25.3V30h25.3V17.9h6.3V30h25.4
		V35.9z M154.3,45.7h6.8l11,30.4h-6.7L154.3,45.7z M168.9,27.7h-4.2l-7.7-13.3h4.2L168.9,27.7z M174.6,24.3h-4.2l-7.6-13.3h4.2
		L174.6,24.3z"/>
	<path class="st3" d="M187.1,23.5h49.4v50.6h-49.4V23.5z M193.4,68h37V29.6h-37V68z"/>
	<path class="st3" d="M253.4,51.1H248V32.9h5.4V51.1z M284.6,34.7h6.7l-25.6,43.6H259L284.6,34.7z M265.2,51.1h-5.4V32.9h5.4V51.1z"
		/>
	<path class="st3" d="M351.9,24.1l-38,54.2h-7.4L340.3,30h-25.8l-13.1,18.8h-7.5l21.7-31h7.5l-4.4,6.2H351.9z"/>
	<polygon class="st4" points="228.5,4.9 195.8,51.4 209.4,52.1 195.5,92.1 228.2,45.6 214.6,44.9 	"/>
</g>
</svg>
