<svg xmlns="http://www.w3.org/2000/svg" width="766" height="250" viewBox="0 0 766 250">
  <defs>
    <style>
      .cls-1 {
        fill-rule: evenodd;
      }
    </style>
  </defs>
  <path id="OTOFILE" class="cls-1" d="M129.227,65.559q-4.1-24.022-13.184-37.061Q102.273,9.018,73.856,9.016q-31.788,0-45.117,25.2-13.184,25.049-13.184,85.4,0,67.677,13.33,94.19Q42.36,240.9,75.32,240.9q31.345,0,44.678-25.195t13.33-85.107q0-42.771-4.1-65.039h0ZM95.682,196.076q-5.713,17-21.094,16.992-15.676,0-21.387-18.164-5.569-19.188-5.566-68.847,0-53.906,5.273-71.778,5.418-17.722,21.68-17.725T96.121,55.891q5.273,19.192,5.274,77.929,0,45.413-5.713,62.256h0Zm45.9-157.47h35.157V238.117h29.882V38.606h34.131V11.945h-99.17v26.66ZM363.433,65.559q-4.1-24.022-13.184-37.061-13.77-19.48-42.187-19.482-31.788,0-45.117,25.2-13.185,25.049-13.184,85.4,0,67.677,13.33,94.19,13.476,27.1,46.436,27.1,31.344,0,44.677-25.195t13.33-85.107q0-42.771-4.1-65.039h0ZM329.888,196.076q-5.713,17-21.094,16.992-15.676,0-21.387-18.164-5.568-19.188-5.566-68.847,0-53.906,5.273-71.778,5.418-17.722,21.68-17.725t21.533,19.336Q335.6,75.082,335.6,133.82q0,45.413-5.713,62.256h0Zm67.822,42.041h30.469V134.992h46V109.211h-46V37.727h50.976V11.945H397.71V238.117Zm106.323,0H534.5V11.945H504.033V238.117Zm64.642,0h80.273V212.336h-49.8V11.945H568.675V238.117Zm103.186,0h81.006V212.336H702.33v-77.2h44.824V109.357H702.33V37.727h50.537V11.945H671.861V238.117Z"/>
</svg>
