<?xml version="1.0" encoding="utf-8"?>
<!-- Generator: Adobe Illustrator 23.0.1, SVG Export Plug-In . SVG Version: 6.00 Build 0)  -->
<svg version="1.1" id="レイヤー_1" xmlns="http://www.w3.org/2000/svg" xmlns:xlink="http://www.w3.org/1999/xlink" x="0px"
	 y="0px" viewBox="0 0 945 247" style="enable-background:new 0 0 945 247;" xml:space="preserve">
<style type="text/css">
	.st0{display:none;}
	.st1{display:inline;}
	.st2{fill-rule:evenodd;clip-rule:evenodd;fill:#dc2032;}
</style>
<g class="st0">
	<path class="st1" d="M390.1,202.5c15.1-17.5,22.7-42.5,22.7-74.9c0-32.4-7.6-57.3-22.7-74.8c-15.1-17.5-34.6-26.3-58.5-26.3
		c-23.9,0-43.3,8.8-58.4,26.3c-15.1,17.5-22.6,42.5-22.6,74.8c0,32.4,7.5,57.4,22.6,74.9c15.1,17.5,34.6,26.3,58.4,26.3
		C355.4,228.8,374.9,220.1,390.1,202.5z M290.9,187.3c-9.8-15-14.7-34.9-14.7-59.6c0-24.7,4.9-44.6,14.7-59.6
		c9.8-15,23.4-22.5,40.7-22.5c17.4,0,31,7.5,40.8,22.5c9.8,15,14.7,34.9,14.7,59.6c0,24.8-4.9,44.7-14.7,59.6
		c-9.8,15-23.4,22.5-40.8,22.5C314.3,209.8,300.7,202.3,290.9,187.3z"/>
	<path class="st1" d="M499.6,207.8c-5.7,0-10.5-1.1-14.6-3.3c-4.1-2.2-7-5.7-8.9-10.4c-1.9-4.7-2.8-13.1-2.8-25.3v-64.1h40.1V85.7
		h-40.1V53.2h-22.9v32.5h-23.9v19.1h23.9v70.6c0,14.4,1.8,24.8,5.4,31.4c3.6,6.6,8.8,11.6,15.6,15c6.8,3.4,14.5,5.2,23.1,5.2
		c5.9,0,14.4-1.4,25.6-4.1v-19.2C510.9,206.4,504.1,207.8,499.6,207.8L499.6,207.8z"/>
	<path class="st1" d="M638.7,208.6c12.7-12.2,19-30.3,19-54.3c0-23.9-6.3-42-19-54.2c-12.7-12.2-27.9-18.3-45.8-18.3
		c-18,0-33.3,6.1-45.9,18.3c-12.7,12.2-19,30.2-19,54.2c0,24,6.3,42.1,19,54.3c12.7,12.2,28,18.3,45.9,18.3
		C610.7,226.9,626,220.8,638.7,208.6z M563,193.1c-7.5-9.8-11.3-22.7-11.3-38.8c0-16,3.8-28.9,11.3-38.7
		c7.5-9.8,17.4-14.7,29.8-14.7c12.3,0,22.2,4.9,29.7,14.7c7.5,9.8,11.3,22.7,11.3,38.7c0,16.1-3.8,29-11.3,38.8
		c-7.5,9.8-17.4,14.7-29.7,14.7C580.5,207.8,570.5,202.9,563,193.1z"/>
	<path class="st1" d="M712.1,104.7h40.1V85.7h-40.1V74.9c0-13.7,2.6-22.3,7.8-25.9c5.2-3.6,11.5-5.4,18.9-5.4c3.9,0,9,0.5,15.4,1.4
		V26.2c-7.8-1.1-14.3-1.7-19.3-1.7c-13.6,0-24.5,4.1-33,12.4c-8.4,8.3-12.6,22.4-12.6,42.3v6.4h-20v19.1h20v118.3h22.9V104.7z"/>
	<path class="st1" d="M771.3,223.1h22.9V85.7h-22.9V223.1z M794.2,55.2v-23h-22.9v23H794.2z"/>
	<path class="st1" d="M847.8,24.5h-22.9v198.5h22.9V24.5z"/>
	<path class="st1" d="M966.8,189c0,4.8-2.3,9.1-6.8,13c-4.5,3.9-11.7,5.8-21.5,5.8c-13.6,0-24.3-4.8-32-14.3
		c-7.7-9.5-11.6-21.6-11.6-36.3h95.6v-7.6c0-17.1-2.4-30.4-7.3-39.9c-4.8-9.6-11.4-16.6-19.7-21.1c-8.3-4.5-17.6-6.8-27.8-6.8
		c-18.6,0-33.9,6.9-45.7,20.8c-11.8,13.9-17.7,31.4-17.7,52.6c0,20.7,5.6,37.8,16.8,51.3s27,20.3,47.6,20.3c10.2,0,19.2-1.6,27-4.9
		c7.8-3.3,14.1-8.1,18.9-14.4c4.8-6.3,7.1-12.5,7.1-18.6v-1.2h-22.9V189z M910.3,111.2c7-6.8,14.7-10.3,23-10.3
		c7,0,13.2,1.5,18.5,4.4c5.3,2.9,9.4,7.4,12.4,13.4c3,6,4.5,12.2,4.5,18.6v2.7h-72.2C898.6,127.6,903.2,118,910.3,111.2z"/>
</g>
<g>
	<path d="M322.7,41.3c-21.8,0-39.8,8.1-53.5,24.1c-13.7,15.9-20.6,38.8-20.6,68c0,29.2,6.9,52.1,20.6,68.1
		c13.8,16,31.8,24.1,53.5,24.1c21.8,0,39.8-8.1,53.6-24.1c13.7-15.9,20.7-38.8,20.7-68.1c0-29.2-7-52.1-20.7-68
		C362.5,49.4,344.4,41.3,322.7,41.3z M357.6,185.7c-8.4,13-19.9,19.3-34.9,19.3c-15,0-26.4-6.3-34.9-19.3
		c-8.5-13-12.8-30.6-12.8-52.3c0-21.6,4.3-39.2,12.8-52.2c8.5-13,19.9-19.3,34.8-19.3c15,0,26.5,6.3,34.9,19.3
		c8.5,13.1,12.8,30.6,12.8,52.2C370.4,155.1,366.1,172.7,357.6,185.7z"/>
	<path d="M477.4,203.2c-4.7,0-8.8-0.9-12.2-2.7c-3.3-1.8-5.6-4.5-7.2-8.4c-1.6-4-2.4-11.3-2.4-21.9v-55.4h35.8V94.1h-35.8v-29h-24
		v29h-21.3v20.6h21.3V176c0,13.2,1.6,22.7,5,28.9c3.3,6.2,8.3,10.9,14.7,14.1c6.3,3.2,13.5,4.8,21.4,4.8c5.4,0,13.2-1.2,23.3-3.7
		l1.4-0.3v-21l-2.3,0.7C487.2,201.9,481.3,203.2,477.4,203.2z"/>
	<path d="M565.5,90.7c-16.4,0-30.7,5.7-42.3,16.8c-11.6,11.2-17.5,27.9-17.5,49.7c0,21.9,5.9,38.6,17.5,49.8
		c11.6,11.2,25.8,16.8,42.3,16.8c16.4,0,30.5-5.7,42.2-16.8c11.6-11.2,17.5-27.9,17.5-49.8c0-21.8-5.9-38.5-17.5-49.7
		C596,96.3,581.8,90.7,565.5,90.7z M590.6,190.7c-6.4,8.4-14.6,12.4-25.1,12.4c-10.6,0-18.8-4.1-25.2-12.4
		c-6.4-8.4-9.7-19.7-9.7-33.6c0-13.8,3.3-25.1,9.7-33.5c6.4-8.4,14.7-12.4,25.2-12.4c10.5,0,18.7,4.1,25.1,12.4
		c6.4,8.4,9.7,19.6,9.7,33.5C600.3,171.1,597,182.4,590.6,190.7z"/>
	<path d="M697,39.5c-12.5,0-22.9,3.9-30.7,11.6c-7.8,7.7-11.8,20.9-11.8,39.1v3.9h-17.9v20.6h17.9v105.7h24V114.7h35.8V94.1h-35.8
		v-7.8c0-11.5,2.1-18.8,6.2-21.7c4.3-3,9.6-4.5,15.8-4.5c3.3,0,7.9,0.4,13.5,1.2l2,0.3V41.3l-1.5-0.2C707.5,40,701.6,39.5,697,39.5z
		"/>
	<rect x="732.5" y="94.1" width="24" height="126.3"/>
	<rect x="732.5" y="46.3" width="24" height="24.1"/>
	<rect x="785.1" y="39.5" width="24" height="180.9"/>
	<path d="M941.3,153c0-15.4-2.2-27.7-6.7-36.5c-4.5-8.8-10.6-15.4-18.4-19.6c-7.7-4.2-16.3-6.3-25.7-6.3c-17.1,0-31.3,6.5-42.1,19.2
		c-10.8,12.7-16.3,28.9-16.3,48.1c0,18.8,5.2,34.6,15.4,46.9c10.3,12.5,25,18.8,43.9,18.8c9.3,0,17.6-1.5,24.8-4.5
		c7.2-3,13.2-7.6,17.6-13.4c4.5-5.9,6.7-11.9,6.7-17.7v-2.9h-24v2.9c0,3.7-1.8,7.1-5.4,10.2c-3.7,3.2-9.7,4.8-18,4.8
		c-11.7,0-20.6-4-27.2-12.1c-6.3-7.7-9.6-17.7-9.9-29.5h85.3V153z M888.4,111.3c5.9,0,11.2,1.2,15.6,3.7c4.4,2.4,7.8,6.2,10.3,11.2
		c2.5,5.1,3.8,10.4,3.8,15.8v0.6h-60.6c2.1-9.6,5.9-17.3,11.5-22.7C875,114.2,881.5,111.3,888.4,111.3z"/>
</g>
<g class="st0">
	<path class="st1" d="M331.6,232.8c-25,0-45.6-9.3-61.5-27.7c-15.7-18.2-23.6-44.3-23.6-77.5c0-33.2,7.9-59.3,23.6-77.5
		c15.8-18.3,36.5-27.7,61.5-27.7c25,0,45.7,9.3,61.5,27.6c15.7,18.2,23.7,44.2,23.7,77.5c0,33.2-8,59.3-23.7,77.5
		C377.2,223.5,356.5,232.8,331.6,232.8z M331.6,49.6c-16,0-28.2,6.8-37.4,20.7c-9.3,14.3-14.1,33.6-14.1,57.4
		c0,23.9,4.7,43.2,14.1,57.4c9.1,13.9,21.3,20.7,37.4,20.7c16.1,0,28.3-6.8,37.4-20.7c9.3-14.2,14-33.6,14-57.5
		c0-23.8-4.7-43.1-14-57.4C360,56.3,347.7,49.6,331.6,49.6z"/>
	<path class="st1" d="M390.1,202.5c15.1-17.5,22.7-42.5,22.7-74.9c0-32.4-7.6-57.3-22.7-74.8c-15.1-17.5-34.6-26.3-58.5-26.3
		c-23.9,0-43.3,8.8-58.4,26.3c-15.1,17.5-22.6,42.5-22.6,74.8c0,32.4,7.5,57.4,22.6,74.9c15.1,17.5,34.6,26.3,58.4,26.3
		C355.4,228.8,374.9,220.1,390.1,202.5z M290.9,187.3c-9.8-15-14.7-34.9-14.7-59.6c0-24.7,4.9-44.6,14.7-59.6
		c9.8-15,23.4-22.5,40.7-22.5c17.4,0,31,7.5,40.8,22.5c9.8,15,14.7,34.9,14.7,59.6c0,24.8-4.9,44.7-14.7,59.6
		c-9.8,15-23.4,22.5-40.8,22.5C314.3,209.8,300.7,202.3,290.9,187.3z"/>
	<path class="st1" d="M494.4,230.9c-9.1,0-17.5-1.9-24.9-5.6c-7.6-3.8-13.4-9.4-17.3-16.7c-3.9-7.2-5.8-18.1-5.8-33.3v-66.6h-23.9
		V81.7h23.9V49.2h30.9v32.5h40.1v27.1h-40.1v60.1c0,14.4,1.4,20.9,2.5,23.8c1.5,3.9,3.9,6.6,7.1,8.4c3.4,1.9,7.7,2.8,12.7,2.8
		c4.1,0,10.6-1.3,19.2-4l5.2-1.6V226l-3.1,0.7C509.4,229.5,500.7,230.9,494.4,230.9z"/>
	<path class="st1" d="M499.6,207.8c-5.7,0-10.5-1.1-14.6-3.3c-4.1-2.2-7-5.7-8.9-10.4c-1.9-4.7-2.8-13.1-2.8-25.3v-64.1h40.1V85.7
		h-40.1V53.2h-22.9v32.5h-23.9v19.1h23.9v70.6c0,14.4,1.8,24.8,5.4,31.4c3.6,6.6,8.8,11.6,15.6,15c6.8,3.4,14.5,5.2,23.1,5.2
		c5.9,0,14.4-1.4,25.6-4.1v-19.2C510.9,206.4,504.1,207.8,499.6,207.8L499.6,207.8z"/>
	<path class="st1" d="M592.9,230.9c-18.9,0-35.3-6.5-48.7-19.4c-13.4-12.9-20.2-32.1-20.2-57.2c0-25,6.8-44.2,20.2-57.1
		c13.4-12.9,29.8-19.4,48.7-19.4c18.9,0,35.2,6.5,48.6,19.4c13.4,12.9,20.2,32.1,20.2,57.1c0,25-6.8,44.3-20.2,57.2
		C628.1,224.3,611.7,230.9,592.9,230.9z M592.9,104.9c-11.2,0-19.9,4.3-26.7,13.1c-6.9,9-10.4,21.2-10.4,36.3
		c0,15.1,3.5,27.3,10.4,36.4c6.8,8.8,15.5,13.1,26.7,13.1c11.1,0,19.8-4.3,26.5-13.1c6.9-9,10.4-21.3,10.4-36.4
		c0-15-3.5-27.2-10.4-36.3C612.6,109.2,603.9,104.9,592.9,104.9z"/>
	<path class="st1" d="M638.7,208.6c12.7-12.2,19-30.3,19-54.3c0-23.9-6.3-42-19-54.2c-12.7-12.2-27.9-18.3-45.8-18.3
		c-18,0-33.3,6.1-45.9,18.3c-12.7,12.2-19,30.2-19,54.2c0,24,6.3,42.1,19,54.3c12.7,12.2,28,18.3,45.9,18.3
		C610.7,226.9,626,220.8,638.7,208.6z M563,193.1c-7.5-9.8-11.3-22.7-11.3-38.8c0-16,3.8-28.9,11.3-38.7
		c7.5-9.8,17.4-14.7,29.8-14.7c12.3,0,22.2,4.9,29.7,14.7c7.5,9.8,11.3,22.7,11.3,38.7c0,16.1-3.8,29-11.3,38.8
		c-7.5,9.8-17.4,14.7-29.7,14.7C580.5,207.8,570.5,202.9,563,193.1z"/>
	<path class="st1" d="M685.2,227.1V108.7h-20V81.7h20v-2.4c0-20.9,4.7-36.1,13.8-45.2c9.2-9,21.2-13.6,35.8-13.6
		c5.3,0,12,0.6,19.9,1.8l3.4,0.5v26.8l-4.6-0.6c-6.2-0.9-11.2-1.3-14.9-1.3c-6.5,0-12.1,1.6-16.6,4.7c-2.8,1.9-6.1,7.4-6.1,22.6v6.7
		h40.1v27.1h-40.1v118.3H685.2z"/>
	<path class="st1" d="M712.1,104.7h40.1V85.7h-40.1V74.9c0-13.7,2.6-22.3,7.8-25.9c5.2-3.6,11.5-5.4,18.9-5.4c3.9,0,9,0.5,15.4,1.4
		V26.2c-7.8-1.1-14.3-1.7-19.3-1.7c-13.6,0-24.5,4.1-33,12.4c-8.4,8.3-12.6,22.4-12.6,42.3v6.4h-20v19.1h20v118.3h22.9V104.7z"/>
	<path class="st1" d="M767.3,227.1V81.7h30.9v145.4H767.3z M767.3,59.2v-31h30.9v31H767.3z"/>
	<path class="st1" d="M771.3,223.1h22.9V85.7h-22.9V223.1z M794.2,55.2v-23h-22.9v23H794.2z"/>
	<rect x="820.9" y="20.5" class="st1" width="30.9" height="206.5"/>
	<path class="st1" d="M847.8,24.5h-22.9v198.5h22.9V24.5z"/>
	<path class="st1" d="M936.7,230.9c-21.7,0-38.8-7.3-50.7-21.7c-11.7-14.2-17.7-32.3-17.7-53.8c0-22,6.3-40.6,18.7-55.2
		c12.6-14.8,28.9-22.3,48.7-22.3c10.9,0,20.9,2.4,29.7,7.2c9,4.9,16.2,12.6,21.4,22.8c5.1,10.1,7.7,24.1,7.7,41.7v11.6H899
		c0.6,11.9,4.2,21.9,10.6,29.8c7,8.6,16.4,12.8,28.9,12.8c8.8,0,15.1-1.6,18.9-4.9c3.6-3.1,5.4-6.4,5.4-10v-5.2h30.9v5.2
		c0,6.9-2.7,14-7.9,21c-5.2,6.9-12.1,12.1-20.5,15.7C956.9,229.1,947.3,230.9,936.7,230.9z M964.6,136c-0.2-5.3-1.6-10.5-4.1-15.6
		c-2.6-5.3-6.2-9.2-10.8-11.7c-4.6-2.6-10.2-3.9-16.5-3.9c-7.3,0-13.9,3-20.2,9.1c-5.5,5.3-9.4,12.7-11.7,22H964.6z"/>
	<path class="st1" d="M966.8,189c0,4.8-2.3,9.1-6.8,13c-4.5,3.9-11.7,5.8-21.5,5.8c-13.6,0-24.3-4.8-32-14.3
		c-7.7-9.5-11.6-21.6-11.6-36.3h95.6v-7.6c0-17.1-2.4-30.4-7.3-39.9c-4.8-9.6-11.4-16.6-19.7-21.1c-8.3-4.5-17.6-6.8-27.8-6.8
		c-18.6,0-33.9,6.9-45.7,20.8c-11.8,13.9-17.7,31.4-17.7,52.6c0,20.7,5.6,37.8,16.8,51.3s27,20.3,47.6,20.3c10.2,0,19.2-1.6,27-4.9
		c7.8-3.3,14.1-8.1,18.9-14.4c4.8-6.3,7.1-12.5,7.1-18.6v-1.2h-22.9V189z M910.3,111.2c7-6.8,14.7-10.3,23-10.3
		c7,0,13.2,1.5,18.5,4.4c5.3,2.9,9.4,7.4,12.4,13.4c3,6,4.5,12.2,4.5,18.6v2.7h-72.2C898.6,127.6,903.2,118,910.3,111.2z"/>
</g>
<path class="st2" d="M241.5,31.9V2.6h-87.7h-27.2v27.2v24.2v27.2v29.6c-13.1-10.9-30-17.5-48.4-17.5c-41.8,0-75.6,33.9-75.6,75.6
	s33.9,75.6,75.6,75.6s75.6-33.9,75.6-75.6c0-1.5-0.1-3-0.1-4.6h0.1V85.3h49.9V56.1h-49.9V31.9H241.5z M89.7,211.5
	c-16.7,0-30.2-13.5-30.2-30.2c0-16.7,13.5-30.2,30.2-30.2c16.7,0,30.2,13.5,30.2,30.2C120,198,106.4,211.5,89.7,211.5z"/>
<rect x="124.5" y="2.6" class="st2" width="2" height="115.5"/>
</svg>
